<svg width="100" height="100" viewBox="0 0 100 100" fill="none" xmlns="http://www.w3.org/2000/svg">
<rect width="100" height="100" fill="none"/>
<path fill-rule="evenodd" clip-rule="evenodd" d="M69 18H41.6531C38.8916 18 36.6531 20.2386 36.6531 23V23.3448H58.3469C63.8698 23.3448 68.3469 27.822 68.3469 33.3448V78C68.3469 83.5229 63.8698 88 58.3469 88H31C25.4772 88 21 83.5229 21 78V33.3448C21 27.822 25.4772 23.3448 31 23.3448H31.6531V23C31.6531 17.4771 36.1302 13 41.6531 13H69C74.5228 13 79 17.4772 79 23V67.2857C79 72.8086 74.5228 77.2857 69 77.2857H68.3469V72.2857H69C71.7614 72.2857 74 70.0471 74 67.2857V23C74 20.2386 71.7614 18 69 18ZM31 28.3448H58.3469C61.1084 28.3448 63.3469 30.5834 63.3469 33.3448V78C63.3469 80.7614 61.1084 83 58.3469 83H31C28.2386 83 26 80.7614 26 78V33.3448C26 30.5834 28.2386 28.3448 31 28.3448Z" fill="black"/>
</svg>
